<?xml version="1.0" encoding="utf-8"?>
<!-- Generated by IcoMoon.io -->
<!DOCTYPE svg PUBLIC "-//W3C//DTD SVG 1.1//EN" "http://www.w3.org/Graphics/SVG/1.1/DTD/svg11.dtd">
<svg version="1.1" xmlns="http://www.w3.org/2000/svg" xmlns:xlink="http://www.w3.org/1999/xlink" width="512" height="512" viewBox="0 0 480 480">
<g>
</g>
	<path d="M377.139 259.492c0 66.637-54.020 120.658-120.658 120.658-66.637 0-120.658-54.021-120.658-120.658 0-66.637 54.020-120.658 120.658-120.658 66.637 0 120.658 54.020 120.658 120.658z"  />
	<path d="M228.352 100.669l30.27-77.906 25.979 77.906z" />
	<path d="M228.352 411.341l30.27 77.895 25.979-77.895z" />
	<path d="M100.659 287.601l-77.895-30.29 77.895-25.959z" />
	<path d="M411.361 287.601l77.875-30.29-77.875-25.959z" />
	<path d="M126.597 165.703l-33.659-76.472 73.442 36.7z" />
	<path d="M346.276 385.423l76.524 33.639-36.741-73.442z" />
	<path d="M168.499 388.199l-76.493 33.639 36.72-73.442z" />
	<path d="M388.199 168.499l33.618-76.513-73.4 36.751z" />
</svg>
