<svg width="167" height="44" viewBox="0 0 167 44" fill="none" xmlns="http://www.w3.org/2000/svg">
<g clip-path="url(#clip0)">
<path d="M92.0847 34.3749H98.1463V26.1249L107.653 10.9449H101.194L95.8608 19.9869C95.4633 20.6139 95.2977 21.0759 95.1983 21.5049H95.1321C95.0327 21.0759 94.834 20.6139 94.4696 19.9869L89.2029 10.9449H82.6112L92.0847 26.1249V34.3749ZM113.507 34.8699C119.568 34.8699 123.841 31.6689 123.841 26.0919C123.841 20.5479 119.568 17.3799 113.507 17.3799C107.412 17.3799 103.139 20.5479 103.139 26.0919C103.139 31.6689 107.412 34.8699 113.507 34.8699ZM113.507 31.0749C110.724 31.0749 108.969 29.2929 108.969 26.0919C108.969 22.8909 110.724 21.1749 113.507 21.1749C116.256 21.1749 118.011 22.8909 118.011 26.0919C118.011 29.2929 116.256 31.0749 113.507 31.0749ZM144.901 18.7329V15.0369C144.536 14.9709 144.205 14.9709 143.841 14.9709C141.158 14.9709 139.369 16.0929 138.806 18.0399C137.448 17.6109 135.825 17.3799 133.937 17.3799C128.273 17.3799 124.894 19.4919 124.894 22.9569C124.894 24.8709 125.954 26.4219 127.842 27.4119C125.656 28.0719 124.364 29.3919 124.364 31.2729C124.364 32.6919 125.225 33.7809 126.782 34.3749C124.828 34.9359 123.867 35.9589 123.867 37.3449C123.867 39.8199 126.915 41.3049 133.407 41.3049C141.092 41.3049 144.768 39.1929 144.768 35.1999C144.768 31.9989 142.648 30.3489 138.243 30.3489L131.121 30.3159C129.598 30.3159 128.935 29.8539 128.935 29.0619C128.935 28.6329 129.167 28.3359 129.598 28.1049C130.823 28.4679 132.281 28.6659 133.937 28.6659C139.568 28.6659 142.98 26.4219 142.98 22.9569C142.98 21.3729 142.251 20.0529 140.926 19.0959C141.456 18.7329 142.218 18.5679 143.178 18.5679C143.808 18.5679 144.338 18.6339 144.901 18.7329ZM133.937 25.8279C131.817 25.8279 130.492 24.7059 130.492 22.9569C130.492 21.2409 131.784 20.2179 133.937 20.2179C136.09 20.2179 137.382 21.2409 137.382 22.9899C137.382 24.7059 136.057 25.8279 133.937 25.8279ZM137.614 34.9029C139.204 34.9029 139.932 35.3979 139.932 36.4209C139.932 37.7739 138.375 38.4339 133.771 38.4339C130.094 38.4339 128.14 37.8399 128.14 36.2889C128.14 35.7279 128.339 35.2329 128.803 34.8369C129.167 34.8369 129.531 34.8699 129.896 34.8699L137.614 34.9029ZM150.969 34.8699C154.414 34.8699 156.998 33.6489 158.058 31.5699C158.058 32.5599 158.124 33.5829 158.29 34.3749H163.954C163.689 33.2199 163.557 31.6359 163.557 29.5569V24.4749C163.557 19.6569 160.708 17.3799 154.381 17.3799C148.849 17.3799 145.14 19.6569 144.709 23.3859H150.605C150.804 21.7689 152.162 20.8779 154.381 20.8779C156.567 20.8779 157.793 21.7689 157.793 23.6169V24.1119L151.798 24.6399C148.883 24.9369 147.226 25.4319 146.067 26.2239C144.841 27.0489 144.212 28.3029 144.212 29.8539C144.212 32.9559 146.796 34.8699 150.969 34.8699ZM153.156 31.4379C151.234 31.4379 150.075 30.6789 150.075 29.4579C150.075 28.2039 151.036 27.5439 153.454 27.2469L157.892 26.7849V27.7749C157.892 29.9859 155.971 31.4379 153.156 31.4379Z" fill="#F78D82"/>
<path opacity="0.3" d="M20.7802 20.6497L0.0115564 17.8447C-0.742586 45.4182 32.7757 44.0818 36.1783 43.8746L20.7802 20.6497Z" fill="#F46152"/>
<path opacity="0.3" d="M51.5055 20.6502L72.2741 17.8475C73.0282 45.421 39.5101 44.0823 36.1073 43.875L51.5055 20.6502Z" fill="#F46152"/>
<path opacity="0.3" d="M43.9575 0C43.9575 0 62.8681 32.1064 36.256 44L20.8259 20.7318L43.9575 0Z" fill="#F46152"/>
<path opacity="0.3" d="M28.2576 0C28.2576 0 9.34693 32.1064 35.9591 44L51.3892 20.7318L28.2576 0Z" fill="#F46152"/>
<path opacity="0.3" d="M36.0524 43.9955C36.0524 43.9955 0.00214386 34.711 10.2471 7.50415L36.0524 16.9025V43.9955Z" fill="#F46152"/>
<path opacity="0.3" d="M36.0524 43.9955C36.0524 43.9955 72.1027 34.711 61.8577 7.50415L36.0524 16.9025V43.9955Z" fill="#F46152"/>
</g>
<defs>
<clipPath id="clip0">
<rect width="167" height="44" fill="white"/>
</clipPath>
</defs>
</svg>
