<svg width="436" height="57" xmlns="http://www.w3.org/2000/svg">
  <path
    d="M94.035 27.15c4.59-2.422 7.942-6.57 7.942-12.078C101.977 5.49 94.577 0 81.686 0H57.309v56.504h26.314c12.643 0 20.502-6.119 20.502-15.954.01-6.644-4.388-11.055-10.09-13.4zm-12.138-2.14H66.74V4.692h14.286c8.043 0 11.468 3.107 11.468 10.38 0 7.02-3.168 9.938-10.596 9.938zm-15.15 26.802v-22.11H81.76c4.747 0 12.717 1.426 12.717 10.98 0 7.808-3.453 11.13-11.55 11.13h-16.18zm-66.73-19.5c0-13.468 10.273-24.4 22.953-24.4 12.652 0 22.953 10.932 22.953 24.4 0 13.466-10.31 24.399-22.953 24.399C10.327 56.71.016 45.778.016 32.31zm8.896 0c0 12.33 5.252 19.706 14.057 19.706V52c8.768 0 14.002-7.358 14.002-19.689S31.775 12.604 22.97 12.604 8.913 19.98 8.913 32.31zm103.172 0c0-13.468 10.274-24.4 22.954-24.4 12.652 0 22.954 10.932 22.954 24.4 0 13.466-10.311 24.399-22.954 24.399s-22.954-10.933-22.954-24.4zm8.897 0c0 12.33 5.252 19.706 14.057 19.706V52c8.768 0 14.002-7.358 14.002-19.689s-5.197-19.707-14.002-19.707-14.057 7.376-14.057 19.707zm55.769-19.145h-16.802V8.53h42.134v4.636h-16.876v42.859h-8.456v-42.86zm42.372-4.636h-8.511v47.495h8.511V8.53zm32.375 43.365c3.773 0 10.531-1.192 13.414-9.16l.818-2.308 4.121 2.055-.671 1.877c-2.855 7.79-9.428 12.266-18.04 12.266-12.938 0-22.696-10.455-22.696-24.306 0-13.673 9.969-24.4 22.696-24.4 8.565 0 15.093 4.514 17.922 12.397l.66 1.877-4.122 2.102-.818-2.327c-2.084-5.884-6.922-9.263-13.284-9.263-8.843 0-14.123 7.31-14.123 19.586 0 12.275 5.28 19.604 14.123 19.604zm107.698-4.466-2.47-7.208a12.21 12.21 0 0 0-5.279-6.315c4.425-1.98 8.263-5.697 8.263-11.646 0-8.587-6.859-13.711-18.362-13.711h-17.299v47.495h8.521V35.83h7.428c5.444 0 7.198 2.178 8.705 6.485l2.395 6.85a23.349 23.349 0 0 0 2.68 5.913l.644.938h11.449l-4.049-3.81a11.573 11.573 0 0 1-2.626-4.776zM332.57 13.158h8.207c7.153 0 10.212 2.73 10.212 9.13 0 6.147-3.131 8.888-10.146 8.888h-8.264l-.009-18.018zm39.563-4.627h8.511v47.495h-8.511V8.53zm40.821-.62c-12.671 0-22.955 10.933-22.955 24.4 0 13.467 10.321 24.4 22.955 24.4 12.634 0 22.952-10.933 22.952-24.4 0-13.467-10.3-24.4-22.952-24.4zm0 4.636c8.768 0 14 7.377 14 19.708s-5.232 19.707-14 19.707c-8.769 0-14.094-7.348-14.094-19.689 0-12.34 5.298-19.726 14.094-19.726zM295.622.986h4.996l-3.865 9.206 20.346 45.862h-9.054l-7.171-16.132h-16.783l-6.951 16.104h-4.985L295.622.986zm-3.36 19.566-6.224 14.678h12.743l-6.519-14.678z" />
</svg>