<svg width="150" height="90" viewBox="0 0 150 90" xmlns="http://www.w3.org/2000/svg">
<path d="M15.8294 38.6885L7.4375 47.259L15.8294 55.8295H24.7412L16.3493 47.259L24.7412 38.6885H15.8294ZM134.171 38.6885H125.222L133.614 47.259L125.222 55.8295H134.171L142.562 47.259L134.171 38.6885Z" />
<path d="M42.006 49.4962C41.2262 50.8994 39.7781 51.8095 38.1071 51.8095C35.6564 51.8095 33.6512 49.7617 33.6512 47.2209C33.6512 44.6801 35.6564 42.6323 38.1071 42.6323C39.7781 42.6323 41.2262 43.5803 42.006 44.9455L46.0163 43.1632C44.4939 40.4707 41.5604 38.6504 38.1442 38.6504C33.2056 38.6504 29.1953 42.4806 29.1953 47.2209C29.1953 51.9612 33.2056 55.7914 38.1442 55.7914C41.5604 55.7914 44.531 53.9711 46.0163 51.2786L42.006 49.4962Z" />
<path d="M92.8786 38.7263C91.1705 38.7263 89.611 39.4089 88.4227 40.4707V33H83.9297V55.8673H88.4227V46.69C88.4227 44.7939 89.908 43.277 91.7646 43.277C93.6213 43.277 95.1065 44.7939 95.1065 46.69V55.8673H99.5624V45.5903C99.5996 41.798 96.5919 38.7263 92.8786 38.7263Z" />
<path d="M111.851 38.6885C106.913 38.6885 102.902 42.5186 102.902 47.259C102.902 51.9993 106.913 55.8295 111.851 55.8295C116.79 55.8295 120.8 51.9993 120.8 47.259C120.8 42.5186 116.79 38.6885 111.851 38.6885ZM111.851 51.8097C109.401 51.8097 107.395 49.7618 107.395 47.259C107.395 44.7561 109.401 42.7083 111.851 42.7083C114.302 42.7083 116.307 44.7561 116.307 47.259C116.307 49.7618 114.339 51.8097 111.851 51.8097Z" />
<path d="M61.5747 38.6885V40.3571C60.1637 39.2952 58.4556 38.6885 56.599 38.6885C51.9574 38.6885 48.207 42.5186 48.207 47.259C48.207 51.9993 51.9574 55.8295 56.599 55.8295C58.4556 55.8295 60.2008 55.1848 61.5747 54.1609V55.8295H66.0677V38.6885H61.5747ZM57.1188 51.8097C54.6681 51.8097 52.6629 49.7618 52.6629 47.259C52.6629 44.7561 54.6681 42.7083 57.1188 42.7083C59.5696 42.7083 61.5747 44.7561 61.5747 47.259C61.6118 49.7618 59.6067 51.8097 57.1188 51.8097Z" />
<path d="M79.4352 51.2028C78.9525 51.5821 78.3955 51.8096 77.7643 51.8096C76.2418 51.8096 74.9793 50.5202 74.9793 48.9654V43.2391H79.4352V39.2573H74.9793V35.2754H70.5234V48.9654C70.5234 52.7577 73.5312 55.8294 77.2444 55.8294C78.4698 55.8294 79.6209 55.4122 80.5863 54.6917L79.4352 51.2028Z" />
</svg>
