<svg width="150" height="90" viewBox="0 0 150 90"  xmlns="http://www.w3.org/2000/svg">
<path d="M16.5611 52.1918C15.5511 52.1918 14.6818 51.9872 13.9531 51.5781C13.2287 51.1648 12.6705 50.581 12.2784 49.8267C11.8864 49.0682 11.6903 48.1712 11.6903 47.1357C11.6903 46.1257 11.8864 45.2393 12.2784 44.4766C12.6705 43.7138 13.2223 43.1193 13.9339 42.6932C14.6499 42.267 15.4893 42.054 16.4524 42.054C17.1001 42.054 17.7031 42.1584 18.2614 42.3672C18.8239 42.5717 19.3139 42.8807 19.7315 43.294C20.1534 43.7074 20.4815 44.2273 20.7159 44.8537C20.9503 45.4759 21.0675 46.2045 21.0675 47.0398V47.7876H12.777V46.1001H18.5043C18.5043 45.7081 18.419 45.3608 18.2486 45.0582C18.0781 44.7557 17.8416 44.5192 17.5391 44.3487C17.2408 44.174 16.8935 44.0866 16.4972 44.0866C16.0838 44.0866 15.7173 44.1825 15.3977 44.3743C15.0824 44.5618 14.8352 44.8153 14.6562 45.1349C14.4773 45.4503 14.3857 45.8018 14.3814 46.1896V47.794C14.3814 48.2798 14.4709 48.6996 14.6499 49.0533C14.8331 49.407 15.0909 49.6797 15.4233 49.8714C15.7557 50.0632 16.1499 50.1591 16.6058 50.1591C16.9084 50.1591 17.1854 50.1165 17.4368 50.0312C17.6882 49.946 17.9034 49.8182 18.0824 49.6477C18.2614 49.4773 18.3977 49.2685 18.4915 49.0213L21.0099 49.1875C20.8821 49.7926 20.62 50.321 20.2237 50.7727C19.8317 51.2202 19.3246 51.5696 18.7024 51.821C18.0845 52.0682 17.3707 52.1918 16.5611 52.1918ZM25.5675 46.3239V52H22.8445V42.1818H25.4396V43.9141H25.5547C25.772 43.343 26.1364 42.8913 26.6477 42.5589C27.1591 42.2223 27.7791 42.054 28.5078 42.054C29.1896 42.054 29.7841 42.2031 30.2912 42.5014C30.7983 42.7997 31.1925 43.2259 31.4737 43.7798C31.755 44.3295 31.8956 44.9858 31.8956 45.7486V52H29.1726V46.2344C29.1768 45.6335 29.0234 45.1648 28.7124 44.8281C28.4013 44.4872 27.973 44.3168 27.4276 44.3168C27.0611 44.3168 26.7372 44.3956 26.456 44.5533C26.179 44.7109 25.9616 44.9411 25.804 45.2436C25.6506 45.5419 25.5717 45.902 25.5675 46.3239ZM38.4778 52.1918C37.4721 52.1918 36.6071 51.9787 35.8826 51.5526C35.1625 51.1222 34.6085 50.5256 34.2207 49.7628C33.8372 49 33.6454 48.1222 33.6454 47.1293C33.6454 46.1236 33.8393 45.2415 34.2271 44.483C34.6191 43.7202 35.1752 43.1257 35.8954 42.6996C36.6156 42.2692 37.4721 42.054 38.465 42.054C39.3216 42.054 40.0716 42.2095 40.715 42.5206C41.3585 42.8317 41.8677 43.2685 42.2427 43.831C42.6177 44.3935 42.8244 45.054 42.8627 45.8125H40.2931C40.2207 45.3224 40.0289 44.9283 39.7179 44.63C39.411 44.3274 39.0083 44.1761 38.5098 44.1761C38.0879 44.1761 37.7193 44.2912 37.4039 44.5213C37.0929 44.7472 36.85 45.0774 36.6752 45.5121C36.5005 45.9467 36.4132 46.473 36.4132 47.0909C36.4132 47.7173 36.4984 48.25 36.6689 48.6889C36.8436 49.1278 37.0886 49.4624 37.4039 49.6925C37.7193 49.9226 38.0879 50.0376 38.5098 50.0376C38.8208 50.0376 39.1 49.9737 39.3471 49.8459C39.5985 49.718 39.8052 49.5327 39.9672 49.2898C40.1333 49.0426 40.242 48.7464 40.2931 48.4013H42.8627C42.8201 49.1513 42.6156 49.8118 42.2491 50.3828C41.8869 50.9496 41.3862 51.3928 40.747 51.7124C40.1078 52.032 39.3514 52.1918 38.4778 52.1918ZM49.0423 52.1918C48.0494 52.1918 47.1907 51.9808 46.4663 51.5589C45.7461 51.1328 45.19 50.5405 44.7979 49.782C44.4059 49.0192 44.2099 48.1349 44.2099 47.1293C44.2099 46.1151 44.4059 45.2287 44.7979 44.4702C45.19 43.7074 45.7461 43.1151 46.4663 42.6932C47.1907 42.267 48.0494 42.054 49.0423 42.054C50.0352 42.054 50.8917 42.267 51.6119 42.6932C52.3363 43.1151 52.8945 43.7074 53.2866 44.4702C53.6786 45.2287 53.8746 46.1151 53.8746 47.1293C53.8746 48.1349 53.6786 49.0192 53.2866 49.782C52.8945 50.5405 52.3363 51.1328 51.6119 51.5589C50.8917 51.9808 50.0352 52.1918 49.0423 52.1918ZM49.055 50.0824C49.5067 50.0824 49.8839 49.9545 50.1864 49.6989C50.489 49.4389 50.717 49.0852 50.8704 48.6378C51.0281 48.1903 51.1069 47.6811 51.1069 47.1101C51.1069 46.5391 51.0281 46.0298 50.8704 45.5824C50.717 45.1349 50.489 44.7812 50.1864 44.5213C49.8839 44.2614 49.5067 44.1314 49.055 44.1314C48.5991 44.1314 48.2156 44.2614 47.9045 44.5213C47.5977 44.7812 47.3654 45.1349 47.2077 45.5824C47.0543 46.0298 46.9776 46.5391 46.9776 47.1101C46.9776 47.6811 47.0543 48.1903 47.2077 48.6378C47.3654 49.0852 47.5977 49.4389 47.9045 49.6989C48.2156 49.9545 48.5991 50.0824 49.055 50.0824ZM58.3683 46.3239V52H55.6452V42.1818H58.2404V43.9141H58.3555C58.5728 43.343 58.9371 42.8913 59.4485 42.5589C59.9599 42.2223 60.5799 42.054 61.3086 42.054C61.9904 42.054 62.5849 42.2031 63.092 42.5014C63.5991 42.7997 63.9933 43.2259 64.2745 43.7798C64.5558 44.3295 64.6964 44.9858 64.6964 45.7486V52H61.9734V46.2344C61.9776 45.6335 61.8242 45.1648 61.5131 44.8281C61.2021 44.4872 60.7738 44.3168 60.2283 44.3168C59.8619 44.3168 59.538 44.3956 59.2567 44.5533C58.9798 44.7109 58.7624 44.9411 58.6048 45.2436C58.4513 45.5419 58.3725 45.902 58.3683 46.3239ZM72.0648 42.1818V44.2273H66.1522V42.1818H72.0648ZM67.4945 39.8295H70.2175V48.983C70.2175 49.2344 70.2559 49.4304 70.3326 49.571C70.4093 49.7074 70.5158 49.8033 70.6522 49.8587C70.7928 49.9141 70.9547 49.9418 71.138 49.9418C71.2658 49.9418 71.3936 49.9311 71.5215 49.9098C71.6493 49.8842 71.7473 49.8651 71.8155 49.8523L72.2438 51.8786C72.1074 51.9212 71.9157 51.9702 71.6685 52.0256C71.4213 52.0852 71.1209 52.1214 70.7672 52.1342C70.111 52.1598 69.5357 52.0724 69.0414 51.8722C68.5513 51.6719 68.1699 51.3608 67.8972 50.9389C67.6245 50.517 67.4902 49.9844 67.4945 49.3409V39.8295ZM73.8386 52V42.1818H76.4785V43.8949H76.5808C76.7598 43.2855 77.0602 42.8253 77.4821 42.5142C77.9039 42.1989 78.3897 42.0412 78.9395 42.0412C79.0758 42.0412 79.2228 42.0497 79.3805 42.0668C79.5382 42.0838 79.6767 42.1072 79.796 42.1371V44.5533C79.6681 44.5149 79.4913 44.4808 79.2654 44.451C79.0396 44.4212 78.8329 44.4062 78.6454 44.4062C78.2449 44.4062 77.8869 44.4936 77.5716 44.6683C77.2605 44.8388 77.0133 45.0774 76.8301 45.3842C76.6511 45.6911 76.5616 46.0447 76.5616 46.4453V52H73.8386ZM83.7223 52.1854C83.0959 52.1854 82.5376 52.0767 82.0476 51.8594C81.5575 51.6378 81.1697 51.3118 80.8842 50.8814C80.603 50.4467 80.4624 49.9055 80.4624 49.2578C80.4624 48.7124 80.5625 48.2543 80.7628 47.8835C80.9631 47.5128 81.2358 47.2145 81.581 46.9886C81.9261 46.7628 82.3182 46.5923 82.7571 46.4773C83.2003 46.3622 83.6648 46.2812 84.1506 46.2344C84.7216 46.1747 85.1818 46.1193 85.5312 46.0682C85.8807 46.0128 86.1342 45.9318 86.2919 45.8253C86.4496 45.7187 86.5284 45.5611 86.5284 45.3523V45.3139C86.5284 44.9091 86.4006 44.5959 86.1449 44.3743C85.8935 44.1527 85.5355 44.0419 85.071 44.0419C84.581 44.0419 84.1911 44.1506 83.9013 44.3679C83.6115 44.581 83.4197 44.8494 83.326 45.1733L80.8075 44.9688C80.9354 44.3722 81.1868 43.8565 81.5618 43.4219C81.9368 42.983 82.4205 42.6463 83.0128 42.4119C83.6094 42.1733 84.2997 42.054 85.0838 42.054C85.6293 42.054 86.1513 42.1179 86.6499 42.2457C87.1527 42.3736 87.598 42.5717 87.9858 42.8402C88.3778 43.1087 88.6868 43.4538 88.9126 43.8757C89.1385 44.2933 89.2514 44.794 89.2514 45.3778V52H86.669V50.6385H86.5923C86.4347 50.9453 86.2237 51.2159 85.9595 51.4503C85.6953 51.6804 85.3778 51.8615 85.0071 51.9936C84.6364 52.1214 84.2081 52.1854 83.7223 52.1854ZM84.5021 50.3061C84.9027 50.3061 85.2564 50.2273 85.5632 50.0696C85.87 49.9077 86.1108 49.6903 86.2855 49.4176C86.4602 49.1449 86.5476 48.8359 86.5476 48.4908V47.4489C86.4624 47.5043 86.3452 47.5554 86.196 47.6023C86.0511 47.6449 85.8871 47.6854 85.7038 47.7237C85.5206 47.7578 85.3374 47.7898 85.1541 47.8196C84.9709 47.8452 84.8047 47.8686 84.6555 47.8899C84.3359 47.9368 84.0568 48.0114 83.8182 48.1136C83.5795 48.2159 83.3942 48.3544 83.2621 48.5291C83.13 48.6996 83.0639 48.9126 83.0639 49.1683C83.0639 49.5391 83.1982 49.8224 83.4666 50.0185C83.7393 50.2102 84.0845 50.3061 84.5021 50.3061ZM91.4151 52V38.9091H94.1381V43.831H94.2212C94.3406 43.5668 94.5131 43.2983 94.739 43.0256C94.9691 42.7486 95.2674 42.5185 95.6339 42.3352C96.0046 42.1477 96.4648 42.054 97.0146 42.054C97.7305 42.054 98.391 42.2415 98.9961 42.6165C99.6012 42.9872 100.085 43.5476 100.447 44.2976C100.809 45.0433 100.99 45.9787 100.99 47.1037C100.99 48.1989 100.814 49.1236 100.46 49.8778C100.11 50.6278 99.6332 51.1967 99.0281 51.5845C98.4272 51.968 97.7539 52.1598 97.0082 52.1598C96.4798 52.1598 96.0302 52.0724 95.6594 51.8977C95.293 51.723 94.9925 51.5036 94.7582 51.2393C94.5238 50.9709 94.3448 50.7003 94.2212 50.4276H94.0998V52H91.4151ZM94.0806 47.0909C94.0806 47.6747 94.1616 48.1839 94.3235 48.6186C94.4854 49.0533 94.7198 49.392 95.0266 49.6349C95.3335 49.8736 95.7063 49.9929 96.1452 49.9929C96.5884 49.9929 96.9634 49.8714 97.2702 49.6286C97.5771 49.3814 97.8093 49.0405 97.967 48.6058C98.1289 48.1669 98.2099 47.6619 98.2099 47.0909C98.2099 46.5241 98.131 46.0256 97.9734 45.5952C97.8157 45.1648 97.5835 44.8281 97.2766 44.5852C96.9698 44.3423 96.5927 44.2209 96.1452 44.2209C95.7021 44.2209 95.3271 44.3381 95.0202 44.5724C94.7177 44.8068 94.4854 45.1392 94.3235 45.5696C94.1616 46 94.0806 46.5071 94.0806 47.0909ZM102.807 52V42.1818H105.447V43.8949H105.55C105.729 43.2855 106.029 42.8253 106.451 42.5142C106.873 42.1989 107.358 42.0412 107.908 42.0412C108.045 42.0412 108.192 42.0497 108.349 42.0668C108.507 42.0838 108.645 42.1072 108.765 42.1371V44.5533C108.637 44.5149 108.46 44.4808 108.234 44.451C108.008 44.4212 107.802 44.4062 107.614 44.4062C107.214 44.4062 106.856 44.4936 106.54 44.6683C106.229 44.8388 105.982 45.0774 105.799 45.3842C105.62 45.6911 105.53 46.0447 105.53 46.4453V52H102.807ZM112.691 52.1854C112.065 52.1854 111.506 52.0767 111.016 51.8594C110.526 51.6378 110.138 51.3118 109.853 50.8814C109.572 50.4467 109.431 49.9055 109.431 49.2578C109.431 48.7124 109.531 48.2543 109.732 47.8835C109.932 47.5128 110.205 47.2145 110.55 46.9886C110.895 46.7628 111.287 46.5923 111.726 46.4773C112.169 46.3622 112.634 46.2812 113.119 46.2344C113.69 46.1747 114.151 46.1193 114.5 46.0682C114.849 46.0128 115.103 45.9318 115.261 45.8253C115.418 45.7187 115.497 45.5611 115.497 45.3523V45.3139C115.497 44.9091 115.369 44.5959 115.114 44.3743C114.862 44.1527 114.504 44.0419 114.04 44.0419C113.55 44.0419 113.16 44.1506 112.87 44.3679C112.58 44.581 112.388 44.8494 112.295 45.1733L109.776 44.9688C109.904 44.3722 110.156 43.8565 110.531 43.4219C110.906 42.983 111.389 42.6463 111.982 42.4119C112.578 42.1733 113.268 42.054 114.053 42.054C114.598 42.054 115.12 42.1179 115.619 42.2457C116.121 42.3736 116.567 42.5717 116.955 42.8402C117.347 43.1087 117.656 43.4538 117.881 43.8757C118.107 44.2933 118.22 44.794 118.22 45.3778V52H115.638V50.6385H115.561C115.403 50.9453 115.192 51.2159 114.928 51.4503C114.664 51.6804 114.347 51.8615 113.976 51.9936C113.605 52.1214 113.177 52.1854 112.691 52.1854ZM113.471 50.3061C113.871 50.3061 114.225 50.2273 114.532 50.0696C114.839 49.9077 115.08 49.6903 115.254 49.4176C115.429 49.1449 115.516 48.8359 115.516 48.4908V47.4489C115.431 47.5043 115.314 47.5554 115.165 47.6023C115.02 47.6449 114.856 47.6854 114.673 47.7237C114.489 47.7578 114.306 47.7898 114.123 47.8196C113.94 47.8452 113.773 47.8686 113.624 47.8899C113.305 47.9368 113.026 48.0114 112.787 48.1136C112.548 48.2159 112.363 48.3544 112.231 48.5291C112.099 48.6996 112.033 48.9126 112.033 49.1683C112.033 49.5391 112.167 49.8224 112.435 50.0185C112.708 50.2102 113.053 50.3061 113.471 50.3061ZM128.502 44.9815L126.009 45.1349C125.966 44.9219 125.875 44.7301 125.734 44.5597C125.593 44.3849 125.408 44.2464 125.178 44.1442C124.952 44.0376 124.681 43.9844 124.366 43.9844C123.944 43.9844 123.588 44.0739 123.299 44.2528C123.009 44.4276 122.864 44.6619 122.864 44.956C122.864 45.1903 122.958 45.3885 123.145 45.5504C123.333 45.7124 123.654 45.8423 124.11 45.9403L125.887 46.2983C126.842 46.4943 127.554 46.8097 128.022 47.2443C128.491 47.679 128.725 48.25 128.725 48.9574C128.725 49.6009 128.536 50.1655 128.157 50.6513C127.782 51.1371 127.266 51.5163 126.61 51.7891C125.958 52.0575 125.206 52.1918 124.353 52.1918C123.054 52.1918 122.018 51.9212 121.247 51.38C120.48 50.8345 120.03 50.093 119.898 49.1555L122.576 49.0149C122.657 49.4112 122.853 49.7138 123.164 49.9226C123.475 50.1271 123.874 50.2294 124.36 50.2294C124.837 50.2294 125.221 50.1378 125.51 49.9545C125.804 49.767 125.953 49.5263 125.958 49.2322C125.953 48.9851 125.849 48.7827 125.645 48.625C125.44 48.4631 125.125 48.3395 124.699 48.2543L122.998 47.9155C122.039 47.7237 121.326 47.3913 120.857 46.9183C120.392 46.4453 120.16 45.8423 120.16 45.1094C120.16 44.4787 120.331 43.9354 120.672 43.4794C121.017 43.0234 121.5 42.6719 122.123 42.4247C122.749 42.1776 123.482 42.054 124.321 42.054C125.561 42.054 126.537 42.3161 127.249 42.8402C127.965 43.3643 128.382 44.0781 128.502 44.9815ZM130.44 52V42.1818H133.163V52H130.44ZM131.808 40.9162C131.403 40.9162 131.056 40.782 130.766 40.5135C130.481 40.2408 130.338 39.9148 130.338 39.5355C130.338 39.1605 130.481 38.8388 130.766 38.5703C131.056 38.2976 131.403 38.1612 131.808 38.1612C132.213 38.1612 132.558 38.2976 132.844 38.5703C133.133 38.8388 133.278 39.1605 133.278 39.5355C133.278 39.9148 133.133 40.2408 132.844 40.5135C132.558 40.782 132.213 40.9162 131.808 40.9162ZM138.067 38.9091V52H135.344V38.9091H138.067Z"/>
</svg>
