<svg width="150" height="90" viewBox="0 0 150 90" fill="none" xmlns="http://www.w3.org/2000/svg">
<g clip-path="url(#clip0_1_3)">
<path fill-rule="evenodd" clip-rule="evenodd" d="M31.4672 40.0722L34.5435 38.3238C33.4953 35.6067 30.8748 34 27.3656 34C21.5776 34 18 37.7095 18 43.1201C18 49.027 22.7397 52.2875 27.2516 52.2875C31.3989 52.2875 34.1106 50.2792 35.2727 48.6017V42.246H26.3629V45.1757H31.9458L31.923 47.1841C31.923 47.1841 30.2823 48.8144 27.32 48.8144C24.1297 48.8144 22.3068 46.5697 22.3068 43.0257C22.3068 39.4579 24.1297 37.2133 27.2744 37.2133C29.143 37.2133 30.5329 38.3711 31.4672 40.0722ZM36.8251 56.2809V53.2802C37.4859 53.3984 37.9189 53.422 38.3747 53.422C39.7419 53.422 40.7673 52.9258 41.2231 51.9335L41.3142 51.5791L35.8909 39.789H40.1976L42.9321 47.019C43.1372 47.5388 43.2056 47.8459 43.2967 48.3421H43.3651C43.4334 47.9168 43.5246 47.6097 43.7068 47.0426L46.3274 39.789H50.3607L45.2108 52.1461C43.9348 55.2177 42.0434 56.4463 38.7621 56.4463C38.2608 56.4463 37.4632 56.3991 36.8251 56.2809ZM55.3741 42.151V39.7883H51.5914V51.602H55.4881V45.4825C55.4881 43.5687 56.3995 42.4582 57.9262 42.4582C59.3847 42.4582 60.1138 43.4033 60.1138 45.3407V51.602H64.0104V45.4116C64.0104 43.5451 64.9219 42.4582 66.4486 42.4582C67.907 42.4582 68.6362 43.4033 68.6362 45.3407V51.602H72.5328V44.6083C72.5328 41.2768 70.9377 39.4339 68.0893 39.4339C66.0841 39.4339 64.5573 40.3554 63.623 42.1747C62.9394 40.3317 61.595 39.4339 59.5897 39.4339C57.5616 39.4339 56.1489 40.3317 55.3741 42.151ZM74.7146 39.7883H78.4973V41.773C79.4316 40.2372 81.1406 39.4339 83.1458 39.4339C86.5639 39.4339 88.8198 41.8911 88.8198 45.6479C88.8198 49.4519 86.45 51.9564 82.9863 51.9564C81.0722 51.9564 79.5683 51.2003 78.6112 49.948V56.2093H74.7146V39.7883ZM81.691 42.1512C83.6508 42.1512 84.7901 43.4271 84.7901 45.648C84.7901 47.869 83.6052 49.2394 81.6682 49.2394C79.7769 49.2394 78.5237 47.9399 78.5237 45.9552V45.459C78.5237 43.3562 79.7769 42.1512 81.691 42.1512ZM90.3231 48.365C90.3231 47.2781 90.7561 46.3803 91.5536 45.7896C92.3512 45.2226 93.4905 44.8682 95.5185 44.6555L99.757 44.2539V43.8994C99.757 42.5763 98.8914 41.9384 97.3417 41.9384C95.7693 41.9384 94.8352 42.5763 94.6756 43.7577H90.6877C90.9839 41.0642 93.5133 39.4339 97.3645 39.4339C101.694 39.4339 103.676 41.0642 103.676 44.4901V48.1524C103.676 49.6645 103.768 50.775 103.95 51.602H100.099C100.008 51.0349 99.9394 50.3025 99.9394 49.5937C99.187 51.0822 97.4101 51.9564 94.9948 51.9564C92.1233 51.9564 90.3231 50.586 90.3231 48.365ZM99.8535 46.1678V46.9239C99.8535 48.4833 98.4863 49.4992 96.4806 49.4992C95.1362 49.4992 94.3162 48.9794 94.3162 48.1053C94.3162 47.1838 94.9774 46.7112 96.7086 46.4986L99.8535 46.1678ZM105.048 49.1447L107.145 47.3018C108.216 48.6249 109.834 49.3338 112.204 49.3338C113.799 49.3338 114.505 48.9793 114.505 48.2469C114.505 47.5853 114.164 47.3254 112.864 47.1837L109.834 46.8765C107.054 46.5221 105.732 45.3171 105.732 43.2379C105.732 40.8279 107.874 39.4339 111.702 39.4339C114.459 39.4339 116.693 40.2372 117.969 41.6785L116.146 43.6159C114.984 42.529 113.548 42.0092 111.497 42.0092C109.993 42.0092 109.287 42.3164 109.287 43.0016C109.287 43.5687 109.697 43.8522 110.745 43.9703L114.095 44.3248C116.897 44.6555 118.014 45.8605 118.014 47.9397C118.014 50.4442 115.986 51.9564 112.021 51.9564C108.853 51.9564 106.461 50.9876 105.048 49.1447ZM121.13 47.3018L119.034 49.1447C120.447 50.9876 122.84 51.9564 126.007 51.9564C129.972 51.9564 132 50.4442 132 47.9397C132 45.8605 130.884 44.6555 128.081 44.3248L124.731 43.9703C123.683 43.8522 123.272 43.5687 123.272 43.0016C123.272 42.3164 123.979 42.0092 125.483 42.0092C127.533 42.0092 128.969 42.529 130.131 43.6159L131.954 41.6785C130.678 40.2372 128.445 39.4339 125.688 39.4339C121.859 39.4339 119.718 40.8279 119.718 43.2379C119.718 45.3171 121.039 46.5221 123.819 46.8765L126.85 47.1837C128.149 47.3254 128.491 47.5853 128.491 48.2469C128.491 48.9793 127.784 49.3338 126.189 49.3338C123.819 49.3338 122.201 48.6249 121.13 47.3018Z" fill="white"/>
</g>
<defs>
<clipPath id="clip0_1_3">
<rect width="114" height="23" fill="white" transform="translate(18 34)"/>
</clipPath>
</defs>
</svg>
