<svg width="150" height="90" viewBox="0 0 150 90" fill="none" xmlns="http://www.w3.org/2000/svg">
<g clip-path="url(#clip0_1_3)">
<path fill-rule="evenodd" clip-rule="evenodd" d="M71.7019 27H78.6526V32.7169H71.7019V27ZM59.6268 27.0047H66.5775V62.4339H59.6268V27.0047ZM29 50.2928C29 43.2752 34.9031 37.5856 42.1841 37.5856C49.4651 37.5856 55.3681 43.2752 55.3681 50.2928C55.3681 57.3104 49.4651 63 42.1841 63C34.9031 63 29 57.3104 29 50.2928ZM35.71 50.2905C35.71 53.7379 38.6097 56.5305 42.1841 56.5305C45.7585 56.5305 48.6581 53.7379 48.6581 50.2905C48.6581 46.8431 45.7585 44.0506 42.1841 44.0506C38.6073 44.0506 35.71 46.8431 35.71 50.2905ZM93.7809 47.3638C91.6268 46.5133 89.7181 45.7106 89.7181 44.1506C89.7181 42.9704 90.893 42.261 92.2142 42.261C94.1726 42.261 95.9822 43.2046 97.3058 44.3394L100.184 39.3388C97.275 37.656 95.6424 37.017 92.2167 37.017C87.5168 37.017 83.0152 39.5685 83.0152 44.6213C83.0152 48.967 86.3914 50.668 89.4751 51.9437C89.7621 52.0662 90.0467 52.1846 90.3257 52.3006C92.5208 53.2135 94.3707 53.9829 94.3707 55.5344C94.3707 57.0466 92.5115 57.7083 91.0913 57.7083C88.5951 57.7083 86.9789 56.6214 85.0206 54.7794L82.2508 59.523C85.1598 61.7652 87.4201 62.9976 91.4334 62.9976C96.4258 62.9976 101.321 60.4939 101.321 55.0136C101.319 50.3605 97.2277 48.734 93.9246 47.421L93.7809 47.3638ZM71.702 37.5856H78.6526V62.4338H71.702V37.5856ZM118.847 56.5759C117.967 57.0012 117.134 57.2854 116.055 57.2854C114.588 57.2854 114 56.3873 113.805 54.9227C113.708 54.2133 113.708 53.5538 113.708 52.7966V43.1593H120.267V37.5856H113.708V32.1053H107.833L106.757 37.5856H103.674V43.1593H106.757V53.5038C106.757 54.9682 106.856 56.4327 107.246 57.6606C108.175 60.8739 110.867 62.9977 114.881 62.9977C116.888 62.9977 119.335 62.477 120.998 61.5333L118.847 56.5759Z" fill="white"/>
</g>
<defs>
<clipPath id="clip0_1_3">
<rect width="92" height="36" fill="white" transform="translate(29 27)"/>
</clipPath>
</defs>
</svg>
