<svg width="250" height="60" viewBox="0 0 250 60" fill="none" xmlns="http://www.w3.org/2000/svg">
<path d="M12.1024 22.1818L0 34.6591L12.1024 47.1364H24.9545L12.8521 34.6591L24.9545 22.1818H12.1024Z" fill="#FF1478"/>
<path d="M237.443 47.1364L249.545 34.6591L237.443 22.1818L224.591 22.1818L236.693 34.6591L224.591 47.1364L237.443 47.1364Z" fill="#FF1478"/>
<path d="M28.8404 32.9483C28.8404 30.7485 29.2909 28.7873 30.192 27.0646C31.1196 25.3419 32.352 24.0035 33.8892 23.0494C35.4529 22.0688 37.1491 21.5785 38.9778 21.5785C40.3824 21.5785 41.6413 21.8303 42.7544 22.3338C43.8676 22.8109 44.7687 23.4867 45.4577 24.3613V21.817H52.2557V54.5747H45.4577V41.2172C44.6892 42.1448 43.7483 42.8869 42.6352 43.4434C41.5486 44 40.3029 44.2783 38.8983 44.2783C37.0961 44.2783 35.4264 43.8012 33.8892 42.8471C32.352 41.893 31.1196 40.5546 30.192 38.8319C29.2909 37.1092 28.8404 35.148 28.8404 32.9483ZM45.4577 32.9085C45.4577 31.7159 45.2192 30.722 44.7422 29.9269C44.2916 29.1053 43.6953 28.4958 42.9532 28.0982C42.2111 27.6742 41.4293 27.4622 40.6077 27.4622C39.8126 27.4622 39.044 27.6742 38.3019 28.0982C37.5599 28.4958 36.9503 29.1053 36.4732 29.9269C35.9962 30.7485 35.7577 31.7556 35.7577 32.9483C35.7577 34.1409 35.9962 35.148 36.4732 35.9696C36.9503 36.7647 37.5599 37.3743 38.3019 37.7983C39.044 38.1959 39.8126 38.3946 40.6077 38.3946C41.4028 38.3946 42.1714 38.1959 42.9135 37.7983C43.682 37.3743 44.2916 36.7514 44.7422 35.9299C45.2192 35.1083 45.4577 34.1011 45.4577 32.9085ZM79.0785 21.817V44H72.2805V40.9787C71.5914 41.9593 70.6506 42.7544 69.4579 43.3639C68.2918 43.947 66.9931 44.2385 65.562 44.2385C63.8658 44.2385 62.3684 43.8675 61.0697 43.1254C59.7711 42.3568 58.764 41.2569 58.0484 39.8258C57.3328 38.3946 56.975 36.7117 56.975 34.777V21.817H63.7333V33.8626C63.7333 35.3468 64.1176 36.4997 64.8862 37.3213C65.6548 38.1428 66.6884 38.5536 67.987 38.5536C69.3122 38.5536 70.359 38.1428 71.1276 37.3213C71.8962 36.4997 72.2805 35.3468 72.2805 33.8626V21.817H79.0785ZM82.6098 32.8688C82.6098 30.5895 83.0339 28.5885 83.8819 26.8658C84.7565 25.1431 85.9359 23.818 87.4201 22.8904C88.9043 21.9628 90.5607 21.499 92.3894 21.499C93.9531 21.499 95.318 21.817 96.4841 22.4531C97.6767 23.0892 98.5911 23.924 99.2272 24.9576V21.817H106.025V44H99.2272V40.8594C98.5646 41.893 97.637 42.7279 96.4443 43.3639C95.2782 44 93.9133 44.318 92.3496 44.318C90.5474 44.318 88.9043 43.8542 87.4201 42.9266C85.9359 41.9725 84.7565 40.6341 83.8819 38.9114C83.0339 37.1622 82.6098 35.148 82.6098 32.8688ZM99.2272 32.9085C99.2272 31.2123 98.7501 29.8739 97.796 28.8933C96.8684 27.9127 95.7288 27.4224 94.3771 27.4224C93.0255 27.4224 91.8726 27.9127 90.9185 28.8933C89.9909 29.8474 89.5271 31.1726 89.5271 32.8688C89.5271 34.5649 89.9909 35.9166 90.9185 36.9237C91.8726 37.9043 93.0255 38.3946 94.3771 38.3946C95.7288 38.3946 96.8684 37.9043 97.796 36.9237C98.7501 35.9431 99.2272 34.6047 99.2272 32.9085ZM124.46 21.5785C127.057 21.5785 129.124 22.4266 130.661 24.1228C132.225 25.7925 133.007 28.0982 133.007 31.0401V44H126.249V31.9544C126.249 30.4702 125.864 29.3174 125.096 28.4958C124.327 27.6742 123.294 27.2634 121.995 27.2634C120.696 27.2634 119.663 27.6742 118.894 28.4958C118.126 29.3174 117.741 30.4702 117.741 31.9544V44H110.943V21.817H117.741V24.7589C118.43 23.7782 119.358 23.0097 120.524 22.4531C121.69 21.87 123.002 21.5785 124.46 21.5785ZM150.095 38.2356V44H146.636C144.171 44 142.25 43.4037 140.871 42.2111C139.493 40.9919 138.804 39.0174 138.804 36.2876V27.4622H136.101V21.817H138.804V16.4104H145.602V21.817H150.055V27.4622H145.602V36.3671C145.602 37.0297 145.761 37.5068 146.079 37.7983C146.397 38.0898 146.927 38.2356 147.669 38.2356H150.095ZM175.786 21.817V44H168.988V40.9787C168.299 41.9593 167.358 42.7544 166.165 43.3639C164.999 43.947 163.7 44.2385 162.269 44.2385C160.573 44.2385 159.076 43.8675 157.777 43.1254C156.478 42.3568 155.471 41.2569 154.756 39.8258C154.04 38.3946 153.682 36.7117 153.682 34.777V21.817H160.441V33.8626C160.441 35.3468 160.825 36.4997 161.593 37.3213C162.362 38.1428 163.396 38.5536 164.694 38.5536C166.019 38.5536 167.066 38.1428 167.835 37.3213C168.604 36.4997 168.988 35.3468 168.988 33.8626V21.817H175.786ZM208.974 21.5785C211.73 21.5785 213.917 22.4133 215.533 24.083C217.177 25.7527 217.998 28.0717 217.998 31.0401V44H211.24V31.9544C211.24 30.5232 210.856 29.4234 210.087 28.6548C209.345 27.8597 208.311 27.4622 206.986 27.4622C205.661 27.4622 204.614 27.8597 203.846 28.6548C203.104 29.4234 202.732 30.5232 202.732 31.9544V44H195.974V31.9544C195.974 30.5232 195.59 29.4234 194.821 28.6548C194.079 27.8597 193.046 27.4622 191.721 27.4622C190.395 27.4622 189.348 27.8597 188.58 28.6548C187.838 29.4234 187.467 30.5232 187.467 31.9544V44H180.669V21.817H187.467V24.5998C188.156 23.6722 189.057 22.9434 190.17 22.4133C191.283 21.8568 192.542 21.5785 193.947 21.5785C195.616 21.5785 197.101 21.9363 198.399 22.6519C199.724 23.3675 200.758 24.3878 201.5 25.713C202.269 24.4938 203.316 23.5 204.641 22.7314C205.966 21.9628 207.41 21.5785 208.974 21.5785Z" fill="#0023A0"/>
</svg>
