<svg xmlns="http://www.w3.org/2000/svg" width="512" height="512" viewBox="0 0 511.626 511.626">
  <g fill="#FFF">
    <path d="M49 178.7c6.6 4.6 26 18.2 58.6 40.7l74.8 52 12.2 8.8 15.4 11 14.8 9.2c5.8 3.4 11.3 6 16.5 7.7 5 1.8 9.8 2.6 14.2 2.6h.6c4.5 0 9.2-.8 14.4-2.5 5-1.7 10.6-4.2 16.4-7.6 5.8-3.5 10.7-6.6 14.8-9.3 4-2.7 9.3-6.3 15.5-10.8l12.2-8.7 133.6-92.8c14-9.7 25.5-21.4 34.8-35 9.4-13.8 14-28.2 14-43.2 0-12.6-4.5-23.3-13.5-32.3-9-9-19.7-13.4-32-13.4H45.6c-14.7 0-26 5-34 15C4 79.5 0 91.7 0 106.7c0 12 5.2 25 15.7 39s21.6 25 33.4 33z"/>
    <path d="M483 209.3c-62.4 42.2-109.8 75-142 98.5-11 8-19.8 14.2-26.5 18.7-6.8 4.4-15.8 9-27 13.7-11.2 4.6-21.7 7-31.4 7h-.5c-9.7 0-20.2-2.4-31.4-7-11-4.7-20-9.3-27-13.7-6.6-4.5-15.4-10.7-26.3-18.7-25.7-19-73-51.7-142-98.5C18 202 8.5 193.8 0 184.3v226.8c0 12.7 4.5 23.4 13.4 32.4 9 9 19.7 13.4 32.3 13.4H466c12.5 0 23.3-4.5 32.2-13.4 9-9 13.4-19.7 13.4-32.3V184.5c-8.2 9.2-17.7 17.5-28.5 25z"/>
  </g>
</svg>
