<svg xmlns="http://www.w3.org/2000/svg" width="0" height="0">
	<defs>
	<symbol id="arrows" width="22" height="22" viewBox="0 0 199.404 199.404">
  		<path fill="#FFF" d="M135.4 0L35.7 99.7l99.7 99.7 28.3-28.3-71.4-71.3 71.4-71.4"/>
	</symbol>
	<symbol id="email" width="25" height="25" viewBox="0 0 511.626 511.626">
	  <g fill="#FFF">
	    <path d="M49 178.7c6.6 4.6 26 18.2 58.6 40.7l74.8 52 12.2 8.8 15.4 11 14.8 9.2c5.8 3.4 11.3 6 16.5 7.7 5 1.8 9.8 2.6 14.2 2.6h.6c4.5 0 9.2-.8 14.4-2.5 5-1.7 10.6-4.2 16.4-7.6 5.8-3.5 10.7-6.6 14.8-9.3 4-2.7 9.3-6.3 15.5-10.8l12.2-8.7 133.6-92.8c14-9.7 25.5-21.4 34.8-35 9.4-13.8 14-28.2 14-43.2 0-12.6-4.5-23.3-13.5-32.3-9-9-19.7-13.4-32-13.4H45.6c-14.7 0-26 5-34 15C4 79.5 0 91.7 0 106.7c0 12 5.2 25 15.7 39s21.6 25 33.4 33z"/>
	    <path d="M483 209.3c-62.4 42.2-109.8 75-142 98.5-11 8-19.8 14.2-26.5 18.7-6.8 4.4-15.8 9-27 13.7-11.2 4.6-21.7 7-31.4 7h-.5c-9.7 0-20.2-2.4-31.4-7-11-4.7-20-9.3-27-13.7-6.6-4.5-15.4-10.7-26.3-18.7-25.7-19-73-51.7-142-98.5C18 202 8.5 193.8 0 184.3v226.8c0 12.7 4.5 23.4 13.4 32.4 9 9 19.7 13.4 32.3 13.4H466c12.5 0 23.3-4.5 32.2-13.4 9-9 13.4-19.7 13.4-32.3V184.5c-8.2 9.2-17.7 17.5-28.5 25z"/>
	  </g>
	</symbol>
	<symbol id="facebook" width="25" height="25" viewBox="0 0 90 90">
  		<path d="M90 15c0-8-7-15-15-15H15C7 0 0 7 0 15v60c0 8 7 15 15 15h30V56H34V41h11v-5.8c0-10 7.6-19.2 17-19.2h12v15H62c-1.5 0-3 1.6-3 4v6h15v15H59v34h16c8 0 15-7 15-15V15z" fill="#FFF"/>
	</symbol>
	<symbol id="github" width="25" height="25" viewBox="0 0 90 90">
	  <path d="M65.7 10.5c1.2 2.7 2 7 .8 10.3 4.6 4 6.2 13.6 4 21.4C77 42.7 85 42 90 44c-4.7-.6-11.2-1.8-17.3-1.4-1.2 0-3 0-2.8 1.6 7 .5 14 1 19.8 3-5.8-1-12.8-2.4-20-2.6-3 5.8-8.8 8.7-17 9.3 1 1.8 2.5 2.5 3 5.6.6 4.6-1 11.4.5 14.5.8 1.6 2 1.6 2.8 3-2 2.2-7-.4-7.4-3-1-4.2 1.5-11-1.2-13.8.2 4.7-1 11.3.2 15.5.5 1.6 2 2.2 1.6 3.7-9.4 1-5.5-12-7-19.8-1.4 0-.8 2-.8 3 0 7.5 1.5 17.8-6.6 16.8-.2-1.5 1-2 1.6-3.5 1.5-4.4-.3-10.7.4-15.8-3 2.4.4 10.5-1.6 14.7-1 2.3-4.6 3.3-7.3 2.3.2-1.8 2-1.5 3-3.2 1-2.2 0-5.6.2-9-5.7 1-10-.2-12.3-3.8-1-1.6-1.3-3.5-2.5-5-1.2-1.4-3-1.6-3.6-3.5 7-1.7 7.3 7.3 13.7 7.5 2 0 3-.5 4.7-1 .6-2.2 1.6-4 3.2-5-8-1.2-14.4-3.7-17.5-9.6C13 45 6.4 46 .3 47.3c5.5-2 12.4-2.7 19.7-3-.5-2.5-4.3-1.8-6.7-1.7-4.3.2-9.8.7-13.3 1.4 5-1.8 12-1.6 19-1.6-2.2-6.5-1.4-17 3-20.8-1.2-3.3-.8-8.6 1-11 5 0 8 2.3 11.2 4.5 4-1 8.2-1.6 13.6-1.3 2.3 0 4.6 1 6.4 1 1.6-.2 3.5-2 5-2.8 2.3-1 4-1.4 6.5-1.5z" fill="#FFF"/>
	</symbol>
	<symbol id="linkedin" width="25" height="25" viewBox="0 0 430.117 430.118">
	  <path d="M398.4 0H31.8C14.2 0 0 13.8 0 30.8v368.5c0 17 14.2 30.8 31.8 30.8h366.6c17.5 0 31.7-13.7 31.7-30.7V30.8c0-17-14-30.8-31.6-30.8zm-268 360h-65V165.8h65V360zM98 139.3h-.5c-21.8 0-36-15-36-33.5 0-19 14.6-33.6 36.8-33.6 22.3 0 36 14.5 36.4 33.6 0 18.6-14 33.5-36.8 33.5zM364.6 360h-65V256c0-26-9.4-43.8-33-43.8-18 0-28.6 12-33.2 23.6-1.8 4.2-2.2 10-2.2 15.8V360h-65s1-176 0-194.2h65v27.6c8.6-13.3 24-32 58.5-32 42.8 0 75 27.6 75 87.3V360zM231 194c0-.2 0-.4.3-.6v.6h-.4z" fill="#FFF"/>
	</symbol>
	<symbol id="menu" xmlns="http://www.w3.org/2000/svg" width="22" height="22" viewBox="0 0 124 124">
	  <g fill="#FFF">
	    <path d="M112 6H12C5.4 6 0 11.4 0 18s5.4 12 12 12h100c6.6 0 12-5.4 12-12s-5.4-12-12-12zM112 50H12C5.4 50 0 55.4 0 62s5.4 12 12 12h100c6.6 0 12-5.4 12-12s-5.4-12-12-12zM112 94H12c-6.6 0-12 5.4-12 12s5.4 12 12 12h100c6.6 0 12-5.4 12-12s-5.4-12-12-12z"/>
	  </g>
	</symbol>
	</defs>
</svg>