<svg xmlns="http://www.w3.org/2000/svg" width="512" height="512" viewBox="0 0 430.117 430.118">
  <path d="M398.4 0H31.8C14.2 0 0 13.8 0 30.8v368.5c0 17 14.2 30.8 31.8 30.8h366.6c17.5 0 31.7-13.7 31.7-30.7V30.8c0-17-14-30.8-31.6-30.8zm-268 360h-65V165.8h65V360zM98 139.3h-.5c-21.8 0-36-15-36-33.5 0-19 14.6-33.6 36.8-33.6 22.3 0 36 14.5 36.4 33.6 0 18.6-14 33.5-36.8 33.5zM364.6 360h-65V256c0-26-9.4-43.8-33-43.8-18 0-28.6 12-33.2 23.6-1.8 4.2-2.2 10-2.2 15.8V360h-65s1-176 0-194.2h65v27.6c8.6-13.3 24-32 58.5-32 42.8 0 75 27.6 75 87.3V360zM231 194c0-.2 0-.4.3-.6v.6h-.4z" fill="#FFF"/>
</svg>
