<svg xmlns="http://www.w3.org/2000/svg" width="512" height="512" viewBox="0 0 90 90">
  <path d="M65.7 10.5c1.2 2.7 2 7 .8 10.3 4.6 4 6.2 13.6 4 21.4C77 42.7 85 42 90 44c-4.7-.6-11.2-1.8-17.3-1.4-1.2 0-3 0-2.8 1.6 7 .5 14 1 19.8 3-5.8-1-12.8-2.4-20-2.6-3 5.8-8.8 8.7-17 9.3 1 1.8 2.5 2.5 3 5.6.6 4.6-1 11.4.5 14.5.8 1.6 2 1.6 2.8 3-2 2.2-7-.4-7.4-3-1-4.2 1.5-11-1.2-13.8.2 4.7-1 11.3.2 15.5.5 1.6 2 2.2 1.6 3.7-9.4 1-5.5-12-7-19.8-1.4 0-.8 2-.8 3 0 7.5 1.5 17.8-6.6 16.8-.2-1.5 1-2 1.6-3.5 1.5-4.4-.3-10.7.4-15.8-3 2.4.4 10.5-1.6 14.7-1 2.3-4.6 3.3-7.3 2.3.2-1.8 2-1.5 3-3.2 1-2.2 0-5.6.2-9-5.7 1-10-.2-12.3-3.8-1-1.6-1.3-3.5-2.5-5-1.2-1.4-3-1.6-3.6-3.5 7-1.7 7.3 7.3 13.7 7.5 2 0 3-.5 4.7-1 .6-2.2 1.6-4 3.2-5-8-1.2-14.4-3.7-17.5-9.6C13 45 6.4 46 .3 47.3c5.5-2 12.4-2.7 19.7-3-.5-2.5-4.3-1.8-6.7-1.7-4.3.2-9.8.7-13.3 1.4 5-1.8 12-1.6 19-1.6-2.2-6.5-1.4-17 3-20.8-1.2-3.3-.8-8.6 1-11 5 0 8 2.3 11.2 4.5 4-1 8.2-1.6 13.6-1.3 2.3 0 4.6 1 6.4 1 1.6-.2 3.5-2 5-2.8 2.3-1 4-1.4 6.5-1.5z" fill="#FFF"/>
</svg>
